<svg id="Layer_1" data-name="Layer 1" xmlns="http://www.w3.org/2000/svg" xmlns:xlink="http://www.w3.org/1999/xlink" viewBox="0 0 1280 1024"><defs><style>.cls-1{fill:none;}.cls-2{clip-path:url(#clip-path);}</style><clipPath id="clip-path"><rect class="cls-1" x="207.83" y="268.32" width="864" height="487.08"/></clipPath></defs><polygon points="870.18 354.59 948.37 478.32 1068.69 280.56 910.82 280.56 870.18 354.59"/><g class="cls-2"><path d="M532.21,513.58v-1.73c0-56.79-37.69-105-90.32-105-54.19,0-88.76,47.33-88.76,103.26v1.72c0,56.8,37.71,105,90.33,105,54.2,0,88.75-47.33,88.75-103.27m-324.38,0v-1.73c0-132.52,99-243.53,235.63-243.53,135.88,0,234.06,109.29,234.06,241.81v1.72c0,132.54-99,243.55-235.63,243.55C306,755.4,207.83,646.11,207.83,513.58"/></g><polygon points="624.14 279.07 764.73 509.71 621.78 744.64 778.87 744.64 845.63 625.02 911.61 744.64 1071.83 744.64 928.89 508.85 785.15 279.07 624.14 279.07"/></svg>